<?xml version="1.0" encoding="utf-8"?>
<!-- Generator: Adobe Illustrator 16.0.0, SVG Export Plug-In . SVG Version: 6.00 Build 0)  -->
<!DOCTYPE svg PUBLIC "-//W3C//DTD SVG 1.1//EN" "http://www.w3.org/Graphics/SVG/1.1/DTD/svg11.dtd">
<svg version="1.1" id="Camada_1" xmlns="http://www.w3.org/2000/svg" xmlns:xlink="http://www.w3.org/1999/xlink" x="0px" y="0px"
	 width="24px" height="24px" viewBox="0 0 24 24" enable-background="new 0 0 24 24" xml:space="preserve">
<path fill="#FFFFFF" d="M19,4c0.287,0,0.525,0.095,0.715,0.285C19.904,4.475,20,4.713,20,5c0,0.281-0.096,0.519-0.289,0.711
	L13.414,12l6.297,6.289C19.904,18.481,20,18.719,20,19c0,0.287-0.096,0.525-0.285,0.715C19.525,19.905,19.287,20,19,20
	c-0.281,0-0.519-0.096-0.711-0.289L12,13.414l-6.289,6.297C5.519,19.904,5.281,20,5,20c-0.287,0-0.525-0.095-0.715-0.285
	C4.095,19.525,4,19.287,4,19c0-0.281,0.096-0.519,0.289-0.711L10.586,12L4.289,5.711C4.096,5.519,4,5.281,4,5
	c0-0.287,0.095-0.525,0.285-0.715C4.475,4.095,4.713,4,5,4c0.281,0,0.519,0.096,0.711,0.289L12,10.586l6.289-6.297
	C18.481,4.096,18.719,4,19,4z"/>
</svg>
