<?xml version="1.0" encoding="utf-8"?>
<!-- Generator: Adobe Illustrator 16.0.0, SVG Export Plug-In . SVG Version: 6.00 Build 0)  -->
<!DOCTYPE svg PUBLIC "-//W3C//DTD SVG 1.1//EN" "http://www.w3.org/Graphics/SVG/1.1/DTD/svg11.dtd">
<svg version="1.1" id="Camada_1" xmlns="http://www.w3.org/2000/svg" xmlns:xlink="http://www.w3.org/1999/xlink" x="0px" y="0px"
	 width="640px" height="480px" viewBox="0 0 640 480" enable-background="new 0 0 640 480" xml:space="preserve">
<g>
	<path fill="#0973C1" d="M182.225,104.625c0-13.575-11.025-24.6-24.6-24.6s-24.525,11.1-24.525,24.6c0,13.575,11.025,24.6,24.6,24.6
		C171.275,129.225,182.225,118.2,182.225,104.625z M145.4,104.625c0-6.75,5.55-12.3,12.3-12.3s12.3,5.475,12.3,12.3
		s-5.55,12.3-12.3,12.3S145.4,111.45,145.4,104.625z"/>
	<path fill="#0973C1" d="M329.75,209.1c-37.275,0-67.575,30.3-67.575,67.575c0,3.375,2.775,6.15,6.15,6.15s6.15-2.775,6.15-6.15
		c0-30.524,24.825-55.275,55.275-55.275c3.375,0,6.15-2.775,6.15-6.15S333.125,209.1,329.75,209.1z"/>
	<path fill="#0973C1" d="M480.5,384.075l-51.975-52.05l-8.7,8.699l-8.775-8.774c10.726-15.75,17.025-34.8,17.025-55.2
		c0-25.95-10.2-49.575-26.7-67.125c-11.7-68.025-69.9-117.225-139.2-117.225c-19.35,0-37.875,3.825-55.35,11.25
		c-0.6-26.625-22.425-48.15-49.2-48.15c-27.075,0-49.125,22.05-49.125,49.125c0,15.525,15.3,43.725,27.9,64.5
		C126.2,189,120.8,211.2,120.8,233.7c0,77.925,63.375,141.375,141.375,141.375c12.525,0,25.05-1.65,37.05-4.95
		c9.601,3.15,19.875,4.95,30.525,4.95c20.475,0,39.45-6.3,55.2-17.025l8.774,8.775l-8.699,8.7l52.05,52.05
		c5.774,5.774,13.5,9,21.75,9s15.899-3.226,21.75-9c5.85-5.775,9-13.5,9-21.75C489.5,397.575,486.275,389.85,480.5,384.075z
		 M268.25,362.1V353.4c2.55,2.024,5.25,3.975,7.95,5.774C273.65,360.45,270.95,361.5,268.25,362.1z M255.95,362.1
		c-16.65-3.675-31.5-21.975-41.7-48.449h24.3c4.2,10.274,10.125,19.725,17.325,27.975V362.1H255.95z M210.2,301.275
		c-5.475-18.15-8.85-39.15-9.375-61.425h37.8c-4.65,11.4-7.275,23.85-7.275,36.9c0,8.475,1.2,16.725,3.225,24.6H210.2V301.275z
		 M133.4,239.85h55.05c0.45,22.35,3.525,43.125,8.625,61.425h-44.7C141.275,283.275,134.45,262.35,133.4,239.85z M244.7,227.55
		h-43.875c0.45-19.8,3.15-38.625,7.575-55.275h47.625v39.675C251.75,216.75,247.925,222,244.7,227.55z M204.125,118.425
		c7.125-3.6,14.475-6.45,22.05-8.625c-11.25,11.85-20.7,29.175-27.3,50.25h-14.55C192.275,146.25,200.225,130.95,204.125,118.425z
		 M268.25,105.45c17.7,3.825,33.825,24.15,44.025,54.525H268.25V105.45z M255.95,105.375v54.6h-43.875
		C222.2,130.2,238.1,109.275,255.95,105.375z M268.25,172.275h47.7c0.6,2.25,1.2,4.575,1.725,6.975
		c-18.6,2.25-35.55,9.75-49.425,20.85V172.275z M330.05,178.425c-0.45-2.1-0.899-4.125-1.425-6.15h47.025
		c3.975,7.425,7.199,15.3,9.75,23.55C369.65,184.875,350.6,178.5,330.05,178.425z M368.225,159.975H325.25
		c-6.675-21.45-16.125-38.625-27.3-50.325C326.675,117.9,351.5,135.75,368.225,159.975z M157.625,67.8
		c20.325,0,36.9,16.575,36.9,36.9c0,15.675-23.25,54.375-36.9,75C144.05,159,120.8,120.375,120.8,104.625
		C120.8,84.3,137.3,67.8,157.625,67.8z M152.6,194.175l5.025,7.35l5.025-7.35c1.575-2.25,7.35-10.8,14.25-21.9h18.6
		c-4.125,16.8-6.6,35.475-6.975,55.275H133.25c0.75-15.9,4.5-31.575,10.875-46.05C148.325,187.95,151.475,192.6,152.6,194.175z
		 M161,313.575h39.975c6.45,18.225,15,33.3,25.125,43.95C200,349.95,177.425,334.35,161,313.575z M243.725,276.75
		c0-47.475,38.625-86.025,86.025-86.025c47.4,0,86.025,38.55,86.025,86.025c0,47.475-38.625,86.025-86.025,86.025
		C282.35,362.775,243.725,324.15,243.725,276.75z M402.425,358.125L394.7,350.4c3.075-2.7,6-5.625,8.7-8.7l7.725,7.725l-4.35,4.351
		L402.425,358.125z M471.8,418.8c-6.975,6.976-19.125,6.976-26.1,0l-43.351-43.35l26.101-26.101L471.8,392.7
		c3.45,3.45,5.4,8.1,5.4,13.05S475.325,415.35,471.8,418.8z"/>
	
		<rect x="454.13" y="401.145" transform="matrix(0.7072 0.707 -0.707 0.7072 422.7451 -206.1692)" fill="#0973C1" width="12.3" height="12.3"/>
	
		<rect x="436.786" y="383.734" transform="matrix(-0.7071 0.7071 -0.7071 -0.7071 1031.8278 352.3705)" fill="#0973C1" width="12.3" height="12.3"/>
	
		<rect x="419.379" y="366.354" transform="matrix(-0.7071 0.7071 -0.7071 -0.7071 989.824 335.0093)" fill="#0973C1" width="12.3" height="12.3"/>
</g>
</svg>
