<?xml version="1.0" encoding="utf-8"?>
<!-- Generator: Adobe Illustrator 16.0.0, SVG Export Plug-In . SVG Version: 6.00 Build 0)  -->
<!DOCTYPE svg PUBLIC "-//W3C//DTD SVG 1.1//EN" "http://www.w3.org/Graphics/SVG/1.1/DTD/svg11.dtd">
<svg version="1.1" id="Camada_1" xmlns="http://www.w3.org/2000/svg" xmlns:xlink="http://www.w3.org/1999/xlink" x="0px" y="0px"
	 width="324.271px" height="354.656px" viewBox="157.872 14.672 324.271 354.656"
	 enable-background="new 157.872 14.672 324.271 354.656" xml:space="preserve">
<g>
	<path fill="#0B91F4" d="M203.472,14.672c-25.152,0-45.6,20.448-45.6,45.6s20.448,45.6,45.6,45.6c25.152,0,45.6-20.448,45.6-45.6
		S228.608,14.672,203.472,14.672z M203.472,85.6c-13.968,0-25.328-11.36-25.328-25.328c0-13.968,11.36-25.328,25.328-25.328
		c13.968,0,25.328,11.36,25.328,25.328C228.8,74.24,217.44,85.6,203.472,85.6z"/>
	<path fill="#0B91F4" d="M203.472,146.4c-25.152,0-45.6,20.448-45.6,45.6s20.448,45.6,45.6,45.6c25.152,0,45.6-20.448,45.6-45.6
		S228.608,146.4,203.472,146.4z M203.472,217.328c-13.968,0-25.328-11.36-25.328-25.328s11.36-25.328,25.328-25.328
		c13.968,0,25.328,11.36,25.328,25.328S217.44,217.328,203.472,217.328z"/>
	<path fill="#0B91F4" d="M203.472,278.128c-25.152,0-45.6,20.448-45.6,45.6c0,25.152,20.448,45.601,45.6,45.601
		c25.152,0,45.6-20.448,45.6-45.601C249.072,298.592,228.608,278.128,203.472,278.128z M203.472,349.072
		c-13.968,0-25.328-11.36-25.328-25.328s11.36-25.328,25.328-25.328c13.968,0,25.328,11.344,25.328,25.312
		C228.8,337.696,217.44,349.072,203.472,349.072z"/>
	<rect x="279.472" y="45.072" fill="#0B91F4" width="202.671" height="20.272"/>
	<rect x="279.472" y="176.8" fill="#0B91F4" width="202.671" height="20.272"/>
	<rect x="279.472" y="308.528" fill="#0B91F4" width="202.671" height="20.271"/>
</g>
</svg>
