<?xml version="1.0" encoding="utf-8"?>
<!-- Generator: Adobe Illustrator 16.0.0, SVG Export Plug-In . SVG Version: 6.00 Build 0)  -->
<!DOCTYPE svg PUBLIC "-//W3C//DTD SVG 1.1//EN" "http://www.w3.org/Graphics/SVG/1.1/DTD/svg11.dtd">
<svg version="1.1" id="Camada_1" xmlns="http://www.w3.org/2000/svg" xmlns:xlink="http://www.w3.org/1999/xlink" x="0px" y="0px"
	 width="640px" height="480px" viewBox="0 0 640 480" enable-background="new 0 0 640 480" xml:space="preserve">
<g>
	<path fill="#0973C1" d="M335.3,245.925h12.3c0-11.475,4.5-22.275,12.601-30.45c8.1-8.1,18.899-12.6,30.45-12.6v-12.3
		c-14.775,0-28.65,5.775-39.075,16.2C341.075,217.275,335.3,231.15,335.3,245.925z"/>
	<path fill="#0973C1" d="M533.975,372l8.7-8.7l-69.524-69.524L460.1,306.75l-8.925-8.925c26.851-31.351,25.575-78.75-4.125-108.375
		c-10.8-10.8-24-17.775-37.95-21.075V80.25c0-16.95-13.8-30.75-30.75-30.75H194.075c-16.95,0-30.75,13.8-30.75,30.75v319.5
		c0,16.95,13.8,30.75,30.75,30.75h184.35c16.95,0,30.75-13.8,30.75-30.75v-76.125c12.3-2.925,23.7-8.7,33.375-17.025l8.925,8.926
		L438.35,328.5l69.525,69.525l8.7-8.7L455.75,328.5l17.4-17.4L533.975,372z M438.35,293.775c-12.75,12.75-29.774,19.8-47.774,19.8
		c-18.075,0-35.025-7.05-47.775-19.8c-26.325-26.325-26.325-69.226,0-95.625c13.2-13.2,30.525-19.8,47.775-19.8
		c17.325,0,34.649,6.6,47.774,19.8C464.75,224.475,464.75,267.375,438.35,293.775z M366.125,169.95
		c-11.7,3.75-22.725,10.2-32.025,19.5c-31.125,31.125-31.125,81.825,0,112.95c9.15,9.149,20.101,15.75,32.025,19.574v16.351h-159.75
		v-196.65h159.75V169.95z M194.075,61.8h184.35c10.2,0,18.45,8.25,18.45,18.45V98.7h-221.25V80.25
		C175.625,70.05,183.875,61.8,194.075,61.8z M378.425,418.2h-184.35c-10.2,0-18.45-8.25-18.45-18.45V381.3h221.25v18.45
		C396.875,409.95,388.55,418.2,378.425,418.2z M396.875,369.075h-221.25v-258.15h221.25v55.425c-6.15-0.45-12.3-0.225-18.45,0.75
		v-37.725h-184.35v221.25h184.35v-25.8c3.976,0.6,8.025,0.975,12.15,0.975c2.1,0,4.2-0.149,6.3-0.3V369.075z"/>
	<rect x="261.65" y="74.1" fill="#0973C1" width="49.125" height="12.3"/>
	<rect x="261.65" y="393.6" fill="#0973C1" width="49.125" height="12.301"/>
	<rect x="237.05" y="74.1" fill="#0973C1" width="12.3" height="12.3"/>
	<rect x="224.75" y="172.425" fill="#0973C1" width="92.175" height="12.3"/>
	<rect x="224.75" y="233.85" fill="#0973C1" width="73.725" height="12.3"/>
	<rect x="224.75" y="295.275" fill="#0973C1" width="92.175" height="12.3"/>
</g>
</svg>
