<?xml version="1.0" encoding="utf-8"?>
<!-- Generator: Adobe Illustrator 16.0.0, SVG Export Plug-In . SVG Version: 6.00 Build 0)  -->
<!DOCTYPE svg PUBLIC "-//W3C//DTD SVG 1.1//EN" "http://www.w3.org/Graphics/SVG/1.1/DTD/svg11.dtd">
<svg version="1.1" id="Camada_1" xmlns="http://www.w3.org/2000/svg" xmlns:xlink="http://www.w3.org/1999/xlink" x="0px" y="0px"
	 width="345.6px" height="307.2px" viewBox="133.2 84.4 345.6 307.2" enable-background="new 133.2 84.4 345.6 307.2"
	 xml:space="preserve">
<g transform="translate(0,-952.36218)">
	<path fill="#FB5050" d="M306,1036.762c-12.511,0-23.61,7.417-29.52,17.4c0,0-134.833,227.87-135.24,228.601
		c-4.042,7.251-8.04,16.055-8.04,26.64c0,18.95,15.609,34.56,34.56,34.56H306h138.24c18.95,0,34.56-15.609,34.56-34.56
		c0-10.586-3.998-19.389-8.04-26.64c-0.406-0.73-135.24-228.601-135.24-228.601C329.609,1044.179,318.511,1036.762,306,1036.762z
		 M306,1059.802c4.815,0,7.533,2.311,10.08,6.96c0,0,134.277,226.854,134.64,227.52c3.056,5.61,5.04,10.665,5.04,15.12
		c0,6.499-5.021,11.52-11.52,11.52H306H167.76c-6.499,0-11.52-5.021-11.52-11.52c0-4.455,1.984-9.51,5.04-15.12
		c0.362-0.665,134.64-227.52,134.64-227.52C298.466,1062.113,301.185,1059.802,306,1059.802z M305.88,1128.682
		c-6.362,0.066-11.467,5.277-11.402,11.639c0,0.041,0.001,0.081,0.002,0.121v92.16c-0.09,6.362,4.995,11.593,11.357,11.683
		s11.593-4.995,11.683-11.356c0.002-0.109,0.002-0.218,0-0.326v-92.16c0.133-6.362-4.917-11.626-11.279-11.758
		C306.121,1128.682,306,1128.681,305.88,1128.682z M306,1259.482c-8.483,0-15.36,6.876-15.36,15.36
		c0,8.482,6.877,15.359,15.36,15.359c8.482,0,15.359-6.877,15.359-15.359C321.359,1266.358,314.482,1259.482,306,1259.482z"/>
</g>
</svg>
