<?xml version="1.0" encoding="utf-8"?>
<!-- Generator: Adobe Illustrator 16.0.0, SVG Export Plug-In . SVG Version: 6.00 Build 0)  -->
<!DOCTYPE svg PUBLIC "-//W3C//DTD SVG 1.1//EN" "http://www.w3.org/Graphics/SVG/1.1/DTD/svg11.dtd">
<svg version="1.1" id="Camada_1" xmlns="http://www.w3.org/2000/svg" xmlns:xlink="http://www.w3.org/1999/xlink" x="0px" y="0px"
	 width="297.693px" height="384px" viewBox="171.153 0 297.693 384" enable-background="new 171.153 0 297.693 384"
	 xml:space="preserve">
<g transform="translate(519.24087,-756.23386)">
	<path fill="#A3A3A3" d="M-242.186,1132.937v-7.296h88.391h88.391v-176.99v-176.99h-88.391h-88.391v-7.713v-7.713h95.896h95.896v192
		v192h-95.896h-95.896V1132.937z M-310.877,986.695c-29.49-29.492-37.21-37.429-37.21-38.255s7.72-8.762,37.212-38.253
		c20.467-20.466,37.403-37.211,37.635-37.211c0.543,0,10.208,9.676,10.208,10.22c0,0.225-12.898,13.309-28.664,29.075
		l-28.663,28.666h92.455h92.455v7.505v7.505h-92.455h-92.455l28.663,28.666c15.765,15.766,28.664,28.85,28.664,29.075
		c0,0.545-9.665,10.22-10.209,10.22C-273.475,1023.908-290.411,1007.163-310.877,986.695z"/>
</g>
</svg>
