<?xml version="1.0" encoding="utf-8"?>
<!-- Generator: Adobe Illustrator 16.0.0, SVG Export Plug-In . SVG Version: 6.00 Build 0)  -->
<!DOCTYPE svg PUBLIC "-//W3C//DTD SVG 1.1//EN" "http://www.w3.org/Graphics/SVG/1.1/DTD/svg11.dtd">
<svg version="1.1" id="Camada_1" xmlns="http://www.w3.org/2000/svg" xmlns:xlink="http://www.w3.org/1999/xlink" x="0px" y="0px"
	 width="19.001px" height="18px" viewBox="311.303 183.489 19.001 18" enable-background="new 311.303 183.489 19.001 18"
	 xml:space="preserve">
<g>
	<path fill="#333333" d="M330.177,200.796l-4.334-4.099c1.349-1.403,2.171-3.266,2.171-5.307c0-4.356-3.748-7.901-8.355-7.901
		s-8.355,3.545-8.355,7.901s3.748,7.901,8.354,7.901c2.141,0,4.096-0.767,5.575-2.022l4.336,4.101
		c0.084,0.079,0.193,0.119,0.305,0.119c0.109,0,0.22-0.04,0.304-0.119C330.346,201.212,330.346,200.955,330.177,200.796z
		 M312.162,191.391c0-3.908,3.361-7.089,7.495-7.089c4.133,0,7.495,3.181,7.495,7.089c0,1.951-0.838,3.721-2.19,5.004
		c-0.009,0.006-0.019,0.012-0.026,0.02c-0.006,0.005-0.01,0.012-0.016,0.018c-1.354,1.266-3.214,2.047-5.263,2.047
		C315.523,198.479,312.162,195.299,312.162,191.391z"/>
</g>
</svg>
