<?xml version="1.0" encoding="utf-8"?>
<!-- Generator: Adobe Illustrator 16.0.0, SVG Export Plug-In . SVG Version: 6.00 Build 0)  -->
<!DOCTYPE svg PUBLIC "-//W3C//DTD SVG 1.1//EN" "http://www.w3.org/Graphics/SVG/1.1/DTD/svg11.dtd">
<svg version="1.1" id="Camada_1" xmlns="http://www.w3.org/2000/svg" xmlns:xlink="http://www.w3.org/1999/xlink" x="0px" y="0px"
	 width="218.438px" height="175.982px" viewBox="214.353 111.157 218.438 175.982"
	 enable-background="new 214.353 111.157 218.438 175.982" xml:space="preserve">
<g>
	<path fill="#A3A3A3" d="M253.792,217.222v50.62c0,2.845,1.68,5.423,4.288,6.57c0.928,0.405,1.912,0.607,2.891,0.607
		c1.759,0,3.498-0.645,4.844-1.886l22.044-20.213l30.526,31.995c1.359,1.426,3.241,2.223,5.187,2.223
		c0.236,0,0.473-0.012,0.713-0.037c2.198-0.22,4.174-1.439,5.355-3.309l102.042-161.63c1.578-2.498,1.464-5.705-0.287-8.085
		c-1.755-2.384-4.781-3.439-7.638-2.675l-204.089,54.68c-2.443,0.654-4.363,2.553-5.047,4.992s-0.034,5.055,1.717,6.887
		L253.792,217.222z M268.139,251.528v-19.271l9.807,10.284L268.139,251.528z M322.41,268.357l-50.87-53.322l132.577-76.095
		L322.41,268.357z M374.309,139.502l-112.972,64.845l-26.272-27.534L374.309,139.502z"/>
</g>
</svg>
