<?xml version="1.0" encoding="utf-8"?>
<!-- Generated by IcoMoon.io -->
<!DOCTYPE svg PUBLIC "-//W3C//DTD SVG 1.1//EN" "http://www.w3.org/Graphics/SVG/1.1/DTD/svg11.dtd">
<svg version="1.1" xmlns="http://www.w3.org/2000/svg" xmlns:xlink="http://www.w3.org/1999/xlink" width="32" height="32" viewBox="0 0 32 32">
<path fill="#a3a3a2" d="M16.002 0c-8.825 0-16.002 7.178-16.002 16 0 3.17 0.929 6.243 2.692 8.88 2.983 4.458 7.957 7.12 13.31 7.12s10.329-2.661 13.31-7.122c1.759-2.63 2.689-5.702 2.689-8.878-0.001-8.822-7.176-16-15.999-16v0zM16.002 1.146c8.189 0 14.85 6.663 14.85 14.854 0 2.683-0.713 5.283-2.071 7.568-0.050-0.059-0.116-0.098-0.164-0.155-0.533-0.602-1.113-1.155-1.756-1.647-0.1-0.077-0.212-0.148-0.319-0.221-0.691-0.496-1.426-0.949-2.237-1.317-0.271-0.127-0.595-0.019-0.737 0.242-1.534 2.74-4.43 4.443-7.564 4.443-3.131 0-6.029-1.703-7.568-4.443-0.066-0.119-0.173-0.19-0.289-0.238-0.033-0.013-0.061-0.017-0.094-0.024-0.042-0.009-0.077-0.031-0.116-0.031-0.081 0-0.162 0.017-0.238 0.052-0.809 0.369-1.544 0.82-2.235 1.315-0.109 0.075-0.221 0.146-0.323 0.225-0.645 0.494-1.227 1.048-1.758 1.653-0.046 0.055-0.109 0.092-0.156 0.148-1.361-2.29-2.075-4.891-2.075-7.57-0.002-8.191 6.663-14.855 14.852-14.855v0zM16.002 30.852c-4.817 0-9.304-2.326-12.097-6.238 0.315-0.396 0.669-0.752 1.032-1.1 0.202-0.192 0.376-0.415 0.592-0.594 0.663-0.542 1.384-1.021 2.18-1.423 1.797 2.83 4.927 4.566 8.292 4.566 3.368 0 6.496-1.736 8.289-4.566 0.796 0.402 1.522 0.881 2.182 1.423 0.212 0.175 0.381 0.394 0.581 0.584 0.367 0.35 0.726 0.709 1.045 1.109-2.794 3.915-7.279 6.24-12.098 6.24v0zM10.469 10.052c0-3.049 2.482-5.532 5.534-5.532 3.049 0 5.53 2.482 5.53 5.532v6.107c0 3.051-2.48 5.534-5.53 5.534-3.051 0-5.534-2.482-5.534-5.534v-6.107zM16.002 22.84c3.682 0 6.678-2.998 6.678-6.682v-6.107c0-3.685-2.995-6.68-6.678-6.68-3.685 0-6.682 2.995-6.682 6.68v6.107c0 3.686 2.997 6.682 6.682 6.682v0z"></path>
</svg>
