<?xml version="1.0" encoding="utf-8"?>
<!-- Generator: Adobe Illustrator 16.0.0, SVG Export Plug-In . SVG Version: 6.00 Build 0)  -->
<!DOCTYPE svg PUBLIC "-//W3C//DTD SVG 1.1//EN" "http://www.w3.org/Graphics/SVG/1.1/DTD/svg11.dtd">
<svg version="1.1" id="Camada_1" xmlns="http://www.w3.org/2000/svg" xmlns:xlink="http://www.w3.org/1999/xlink" x="0px" y="0px"
	 width="640px" height="480px" viewBox="0 0 640 480" enable-background="new 0 0 640 480" xml:space="preserve">
<g>
	<path fill="#0973C1" d="M124.5,47.5v73.725v12.3V428.5h381V133.525v-12.3V47.5H124.5z M493.2,416.2H136.8V133.525h356.4V416.2z
		 M136.8,121.225V59.8h356.4v61.425H136.8z"/>
	<path fill="#0973C1" d="M173.625,72.1c-10.125,0-18.375,8.25-18.375,18.45c0,10.2,8.25,18.45,18.45,18.45
		c10.2,0,18.45-8.25,18.45-18.45C192.15,80.35,183.825,72.1,173.625,72.1z M173.625,96.625c-3.375,0-6.15-2.775-6.15-6.15
		s2.775-6.15,6.15-6.15s6.15,2.775,6.15,6.15S177.075,96.625,173.625,96.625z"/>
	<path fill="#0973C1" d="M228.975,72.1c-10.2,0-18.45,8.25-18.45,18.45c0,10.2,8.25,18.45,18.45,18.45
		c10.2,0,18.45-8.25,18.45-18.45C247.425,80.35,239.1,72.1,228.975,72.1z M228.975,96.625c-3.375,0-6.15-2.775-6.15-6.15
		s2.775-6.15,6.15-6.15s6.15,2.775,6.15,6.15S232.35,96.625,228.975,96.625z"/>
	<path fill="#0973C1" d="M284.25,72.1c-10.2,0-18.45,8.25-18.45,18.45c0,10.2,8.25,18.45,18.45,18.45s18.45-8.25,18.45-18.45
		C302.7,80.35,294.45,72.1,284.25,72.1z M284.25,96.625c-3.375,0-6.15-2.775-6.15-6.15s2.775-6.15,6.15-6.15s6.15,2.775,6.15,6.15
		S287.625,96.625,284.25,96.625z"/>
	<rect x="321.15" y="84.4" fill="#0973C1" width="153.6" height="12.3"/>
	<path fill="#0973C1" d="M388.725,403.9c54.226,0,98.325-44.101,98.325-98.325c0-24.825-9.3-47.476-24.6-64.8v-76.5h-294.9v221.25
		H331.65C347.775,397,367.425,403.9,388.725,403.9z M388.725,391.6c-47.475,0-86.024-38.625-86.024-86.024
		c0-47.4,38.625-86.025,86.024-86.025c47.4,0,86.025,38.625,86.025,86.025C474.75,352.975,436.2,391.6,388.725,391.6z
		 M179.775,176.575H450.15V229c-16.875-13.575-38.176-21.675-61.426-21.675c-54.225,0-98.325,44.1-98.325,98.325
		c0,26.175,10.35,49.949,27.075,67.574h-137.7V176.575z"/>
	<polygon fill="#0973C1" points="367.2,330.7 347.025,310.45 338.325,319.15 367.2,348.1 439.2,276.175 430.5,267.475 	"/>
	<rect x="204.375" y="201.1" fill="#0973C1" width="122.925" height="12.3"/>
	<rect x="204.375" y="268.75" fill="#0973C1" width="79.875" height="12.3"/>
	<rect x="204.375" y="336.325" fill="#0973C1" width="79.875" height="12.3"/>
</g>
</svg>
