<?xml version="1.0" encoding="utf-8"?>
<!-- Generator: Adobe Illustrator 16.0.0, SVG Export Plug-In . SVG Version: 6.00 Build 0)  -->
<!DOCTYPE svg PUBLIC "-//W3C//DTD SVG 1.1//EN" "http://www.w3.org/Graphics/SVG/1.1/DTD/svg11.dtd">
<svg version="1.1" id="Camada_1" xmlns="http://www.w3.org/2000/svg" xmlns:xlink="http://www.w3.org/1999/xlink" x="0px" y="0px"
	 width="640px" height="480px" viewBox="0 0 640 480" enable-background="new 0 0 640 480" xml:space="preserve">
<g>
	<path fill="#0973C1" d="M132.5,50.5v73.725v12.3V431.5h381V136.525v-12.3V50.5H132.5z M501.2,419.2H144.8V136.525h356.4V419.2z
		 M144.8,124.225V62.8h356.4v61.425H144.8z"/>
	<path fill="#0973C1" d="M181.625,75.1c-10.125,0-18.375,8.25-18.375,18.45c0,10.2,8.25,18.45,18.45,18.45
		c10.2,0,18.45-8.25,18.45-18.45C200.15,83.35,191.825,75.1,181.625,75.1z M181.625,99.625c-3.375,0-6.15-2.775-6.15-6.15
		s2.775-6.15,6.15-6.15s6.15,2.775,6.15,6.15S185.075,99.625,181.625,99.625z"/>
	<path fill="#0973C1" d="M236.975,75.1c-10.2,0-18.45,8.25-18.45,18.45c0,10.2,8.25,18.45,18.45,18.45
		c10.2,0,18.45-8.25,18.45-18.45C255.425,83.35,247.1,75.1,236.975,75.1z M236.975,99.625c-3.375,0-6.15-2.775-6.15-6.15
		s2.775-6.15,6.15-6.15s6.15,2.775,6.15,6.15S240.35,99.625,236.975,99.625z"/>
	<path fill="#0973C1" d="M292.25,75.1c-10.2,0-18.45,8.25-18.45,18.45c0,10.2,8.25,18.45,18.45,18.45s18.45-8.25,18.45-18.45
		C310.7,83.35,302.45,75.1,292.25,75.1z M292.25,99.625c-3.375,0-6.15-2.775-6.15-6.15s2.775-6.15,6.15-6.15s6.15,2.775,6.15,6.15
		S295.625,99.625,292.25,99.625z"/>
	<rect x="329.15" y="87.4" fill="#0973C1" width="153.6" height="12.3"/>
	<path fill="#0973C1" d="M227.6,320.2l-12,24.075l41.025,41.024l24.075-12c1.575,0.75,3.225,1.351,4.875,2.025l8.475,25.5h58.05
		l8.476-25.5c1.649-0.601,3.225-1.275,4.875-2.025l24.075,12l41.024-41.024l-12-24.075c0.75-1.575,1.351-3.226,2.025-4.875
		l25.5-8.476V248.8l-25.5-8.475c-0.601-1.65-1.275-3.225-2.025-4.875l12-24.075l-41.024-41.025l-24.075,12
		c-1.575-0.75-3.226-1.35-4.875-2.025l-8.476-25.5h-58.05l-8.475,25.5c-1.65,0.6-3.225,1.275-4.875,2.025l-24.075-12L215.6,211.375
		l12,24.075c-0.75,1.575-1.35,3.225-2.025,4.875l-25.5,8.475v58.05l25.5,8.476C226.25,316.975,226.925,318.625,227.6,320.2z
		 M212.375,257.725l22.725-7.574l0.975-2.851c1.125-3.075,2.4-6.225,3.825-9.225l1.275-2.7l-10.725-21.45l28.5-28.5l21.45,10.725
		l2.7-1.275c3-1.425,6.075-2.7,9.225-3.825l2.85-0.975l7.575-22.725h40.275L350.75,190l2.85,0.975
		c3.075,1.125,6.226,2.4,9.226,3.825l2.7,1.275l21.449-10.725l28.5,28.5l-10.725,21.525l1.275,2.7
		c1.425,3.075,2.774,6.149,3.824,9.225l0.976,2.851l22.725,7.574V298l-22.725,7.575l-0.976,2.85
		c-1.05,3.075-2.399,6.226-3.824,9.226l-1.275,2.699l10.725,21.45l-28.5,28.5l-21.449-10.725l-2.7,1.274
		c-3,1.426-6.15,2.775-9.226,3.825l-2.85,0.976l-7.575,22.725H302.9l-7.65-22.65l-2.85-0.975c-3.075-1.05-6.225-2.4-9.225-3.825
		l-2.7-1.274l-21.45,10.725l-28.5-28.5l10.725-21.45l-1.275-2.7c-1.425-3-2.775-6.149-3.825-9.225l-0.975-2.85l-22.8-7.65V257.725z"
		/>
	<path fill="#0973C1" d="M323,351.625c40.65,0,73.725-33.075,73.725-73.725c0-40.65-33.074-73.726-73.725-73.726
		c-40.65,0-73.725,33.075-73.725,73.726C249.275,318.55,282.35,351.625,323,351.625z M323,216.4c33.9,0,61.425,27.6,61.425,61.425
		c0,33.899-27.6,61.425-61.425,61.425s-61.425-27.6-61.425-61.425S289.1,216.4,323,216.4z"/>
	<rect x="316.85" y="179.575" fill="#0973C1" width="12.3" height="12.3"/>
	<rect x="316.85" y="363.925" fill="#0973C1" width="12.3" height="12.3"/>
	
		<rect x="381.992" y="206.561" transform="matrix(-0.7072 -0.707 0.707 -0.7072 512.2379 637.563)" fill="#0973C1" width="12.3" height="12.3"/>
	
		<rect x="251.657" y="336.917" transform="matrix(-0.7071 -0.7071 0.7071 -0.7071 197.5197 767.9481)" fill="#0973C1" width="12.3" height="12.3"/>
	<rect x="409.025" y="271.75" fill="#0973C1" width="12.3" height="12.3"/>
	<rect x="224.675" y="271.75" fill="#0973C1" width="12.3" height="12.3"/>
	
		<rect x="382.051" y="336.888" transform="matrix(0.7071 0.7071 -0.7071 0.7071 356.2661 -174.0261)" fill="#0973C1" width="12.3" height="12.3"/>
	
		<rect x="251.649" y="206.565" transform="matrix(-0.7071 -0.7071 0.7071 -0.7071 289.6788 545.4186)" fill="#0973C1" width="12.3" height="12.3"/>
</g>
</svg>
