<?xml version="1.0" encoding="utf-8"?>
<!-- Generator: Adobe Illustrator 16.0.0, SVG Export Plug-In . SVG Version: 6.00 Build 0)  -->
<!DOCTYPE svg PUBLIC "-//W3C//DTD SVG 1.1//EN" "http://www.w3.org/Graphics/SVG/1.1/DTD/svg11.dtd">
<svg version="1.1" id="Camada_1" xmlns="http://www.w3.org/2000/svg" xmlns:xlink="http://www.w3.org/1999/xlink" x="0px" y="0px"
	 width="640px" height="480px" viewBox="0 0 640 480" enable-background="new 0 0 640 480" xml:space="preserve">
<g>
	<rect x="451.075" y="314.175" fill="#0973C1" width="12.3" height="12.3"/>
	<path fill="#0973C1" d="M463.375,185.1V99.075H131.5v208.95h98.325v24.6h-12.3v12.3h12.3H365.05h12.3v-12.3h-12.3v-24.6h36.9
		v36.899H512.5v-159.75h-49.125V185.1z M352.75,332.625H242.125v-24.6H352.75V332.625z M365.05,295.725H229.825H143.8v-184.35
		h307.275V185.1h-18.45v-55.275H162.25v147.45h239.625v18.449H365.05L365.05,295.725z M401.875,265.05H174.55V142.125h245.775v43.05
		h-18.45V265.05z M500.2,332.625h-86.025V197.4H500.2V332.625L500.2,332.625z"/>
	<rect x="475.6" y="246.6" fill="#0973C1" width="12.301" height="43.051"/>
	<rect x="451.075" y="258.9" fill="#0973C1" width="12.3" height="30.75"/>
	<rect x="426.475" y="271.125" fill="#0973C1" width="12.301" height="18.45"/>
	<polygon fill="#0973C1" points="341.2,207.825 317.35,171.45 262,226.5 241.675,188.925 200.575,236.4 209.875,244.425 
		239.35,210.375 259,246.825 315.325,190.8 340.075,228.45 388.15,170.625 378.7,162.75 	"/>
</g>
</svg>
