<?xml version="1.0" encoding="utf-8"?>
<!-- Generator: Adobe Illustrator 16.0.0, SVG Export Plug-In . SVG Version: 6.00 Build 0)  -->
<!DOCTYPE svg PUBLIC "-//W3C//DTD SVG 1.1//EN" "http://www.w3.org/Graphics/SVG/1.1/DTD/svg11.dtd">
<svg version="1.1" id="Camada_1" xmlns="http://www.w3.org/2000/svg" xmlns:xlink="http://www.w3.org/1999/xlink" x="0px" y="0px"
	 width="337.92px" height="337.921px" viewBox="151.04 23.04 337.92 337.921" enable-background="new 151.04 23.04 337.92 337.921"
	 xml:space="preserve">
<g transform="translate(0,-952.36218)">
	<path fill="#A3A3A3" d="M343.04,975.402c12.632,0,23.04,10.408,23.04,23.04v15.96c4.536,1.59,8.988,3.349,13.32,5.4l11.279-11.28
		c8.932-8.932,23.59-8.932,32.521,0l32.52,32.52c8.932,8.932,8.932,23.709,0,32.64l-11.279,11.28
		c2.062,4.354,3.923,8.762,5.52,13.32h15.96c12.632,0,23.04,10.409,23.04,23.04v46.08c0,12.632-10.408,23.04-23.04,23.04h-16.08
		c-1.576,4.488-3.372,8.911-5.399,13.2l11.279,11.28c8.932,8.931,8.932,23.709,0,32.64l-32.52,32.521
		c-8.931,8.931-23.589,8.931-32.521,0l-11.279-11.28c-4.332,2.051-8.784,3.81-13.32,5.399v16.08
		c0,12.632-10.408,23.041-23.04,23.041h-46.08c-12.631,0-23.04-10.409-23.04-23.041v-16.08c-4.501-1.59-8.911-3.361-13.2-5.399
		l-11.28,11.28c-8.931,8.931-23.589,8.931-32.52,0l-32.64-32.521c-8.932-8.931-8.932-23.709,0-32.64l11.4-11.4
		c-2.029-4.223-3.912-8.604-5.52-13.08h-16.08c-12.631,0-23.04-10.408-23.04-23.04v-46.08c0-12.631,10.409-23.04,23.04-23.04h16.08
		c1.625-4.531,3.465-8.928,5.52-13.2l-11.4-11.4c-8.932-8.931-8.932-23.709,0-32.64l32.64-32.52c8.931-8.931,23.589-8.931,32.52,0
		l11.28,11.28c4.289-2.039,8.698-3.811,13.2-5.4v-15.96c0-12.631,10.409-23.04,23.04-23.04H343.04L343.04,975.402z M343.04,990.762
		h-46.08c-4.387,0-7.68,3.292-7.68,7.68v21.12c0,3.245-2.301,6.356-5.4,7.319c-7.472,2.3-14.621,5.182-21.36,8.76
		c-2.866,1.522-6.691,0.96-9-1.32l-14.88-14.88c-3.103-3.104-7.817-3.104-10.92,0l-32.64,32.52c-3.103,3.104-3.103,7.697,0,10.8
		l15,15c2.372,2.297,2.989,6.204,1.44,9.12c-3.611,6.813-6.731,13.845-9,21.24c-0.921,3.143-4.045,5.499-7.32,5.521h-21.12
		c-4.387,0-7.68,3.292-7.68,7.68v46.08c0,4.388,3.293,7.68,7.68,7.68h21.12c3.245,0,6.356,2.301,7.32,5.4
		c2.269,7.396,5.389,14.547,9,21.36c1.492,2.89,0.879,6.719-1.44,9l-15,15c-3.103,3.103-3.103,7.696,0,10.799l32.64,32.521
		c3.103,3.104,7.817,3.104,10.92,0l14.88-14.88c2.309-2.28,6.134-2.842,9-1.32c6.739,3.579,13.888,6.461,21.36,8.76
		c3.137,0.976,5.445,4.155,5.4,7.44v21.12c0,4.387,3.293,7.68,7.68,7.68h46.08c4.388,0,7.68-3.293,7.68-7.68v-21.12
		c-0.046-3.285,2.263-6.465,5.4-7.44c7.526-2.31,14.731-5.176,21.479-8.76c2.867-1.521,6.691-0.96,9,1.32l14.88,14.88
		c3.104,3.104,7.817,3.104,10.921,0l32.52-32.521c3.103-3.103,3.103-7.696,0-10.799l-14.88-14.881c-2.281-2.308-2.842-6.134-1.32-9
		c3.584-6.748,6.45-13.953,8.76-21.479c0.964-3.099,4.075-5.394,7.32-5.4h21.12c4.388,0,7.68-3.292,7.68-7.68v-46.08
		c0-4.388-3.292-7.68-7.68-7.68H444.8c-3.274-0.039-6.398-2.378-7.32-5.521c-2.31-7.527-5.176-14.611-8.76-21.359
		c-1.578-2.892-1.013-6.795,1.32-9.12l14.88-14.88c3.103-3.104,3.103-7.697,0-10.8l-32.52-32.52c-3.104-3.103-7.817-3.103-10.921,0
		l-14.88,14.88c-2.309,2.281-6.133,2.842-9,1.32c-6.748-3.584-13.953-6.45-21.479-8.76c-3.099-0.963-5.394-4.075-5.399-7.32v-21.12
		C350.721,994.055,347.428,990.763,343.04,990.762L343.04,990.762z M320,1067.562c42.324,0,76.8,34.475,76.8,76.8
		c0,42.324-34.476,76.8-76.8,76.8c-42.325,0-76.8-34.476-76.8-76.8C243.2,1102.037,277.675,1067.562,320,1067.562L320,1067.562z
		 M320,1082.922c-34.023,0-61.44,27.416-61.44,61.44c0,34.023,27.417,61.439,61.44,61.439s61.439-27.416,61.439-61.439
		C381.439,1110.338,354.023,1082.922,320,1082.922L320,1082.922z"/>
</g>
</svg>
