<?xml version="1.0" encoding="utf-8"?>
<!-- Generator: Adobe Illustrator 16.0.0, SVG Export Plug-In . SVG Version: 6.00 Build 0)  -->
<!DOCTYPE svg PUBLIC "-//W3C//DTD SVG 1.1//EN" "http://www.w3.org/Graphics/SVG/1.1/DTD/svg11.dtd">
<svg version="1.1" id="Camada_1" xmlns="http://www.w3.org/2000/svg" xmlns:xlink="http://www.w3.org/1999/xlink" x="0px" y="0px"
	 width="640px" height="480px" viewBox="0 0 640 480" enable-background="new 0 0 640 480" xml:space="preserve">
<g>
	<path fill="#0973C1" d="M239.775,95.975L236.1,84.2c-39.525,12.3-68.625,45.225-75.975,85.875l12.075,2.175
		C178.725,136.175,204.675,106.925,239.775,95.975z"/>
	<path fill="#0973C1" d="M368.85,206.825c-6.524,36.149-32.399,65.399-67.575,76.35l3.675,11.775
		c39.524-12.3,68.625-45.226,75.975-85.875L368.85,206.825z"/>
	<path fill="#0973C1" d="M493.425,377l-96-96l-6.899,6.9l-10.5-10.5c19.05-24.075,30.449-54.525,30.449-87.525
		c0-77.925-63.449-141.375-141.45-141.375c-78,0-141.45,63.45-141.45,141.45s63.45,141.45,141.45,141.45
		c29.85,0,57.6-9.301,80.475-25.2l11.4,11.399l-6.9,6.9l96,96c5.775,5.775,13.5,9,21.75,9s15.9-3.225,21.75-9
		c5.775-5.775,9-13.5,9-21.75C502.425,390.5,499.2,382.775,493.425,377z M139.875,189.95c0-71.25,57.975-129.15,129.15-129.15
		c71.175,0,129.15,57.9,129.15,129.15S340.2,319.1,269.025,319.1C197.85,319.1,139.875,261.2,139.875,189.95z M359.4,298.7
		c4.425-3.675,8.625-7.65,12.6-11.925l9.825,9.824l-6.15,6.15l-6.149,6.15L359.4,298.7z M384.375,311.45l13.05-13.05l9.15,9.149
		l-26.101,26.101l-9.074-9.15L384.375,311.45z M389.175,342.35l26.101-26.1l65.1,65.1l-26.1,26.101L389.175,342.35z M484.725,411.8
		c-5.475,5.476-14.024,6.601-20.925,3.525l24.45-24.45c1.2,2.475,1.875,5.1,1.875,7.875
		C490.125,403.7,488.175,408.275,484.725,411.8z"/>
	
		<rect x="444.351" y="371.355" transform="matrix(-0.707 -0.7072 0.7072 -0.707 502.0181 963.0029)" fill="#0973C1" width="12.3" height="12.3"/>
	
		<rect x="426.985" y="354.018" transform="matrix(-0.7071 0.7071 -0.7071 -0.7071 994.0845 308.5727)" fill="#0973C1" width="12.3" height="12.3"/>
	
		<rect x="409.584" y="336.624" transform="matrix(-0.7071 0.7071 -0.7071 -0.7071 952.0804 291.1823)" fill="#0973C1" width="12.3" height="12.3"/>
	<path fill="#0973C1" d="M303.75,200.225L341.1,163.4c2.325,1.05,4.801,1.65,7.5,1.65c10.2,0,18.45-8.25,18.45-18.45
		c0-10.2-8.25-18.45-18.45-18.45c-10.199,0-18.449,8.25-18.449,18.45c0,3,0.75,5.775,2.024,8.25l-37.125,36.6
		c-2.475-1.2-5.175-1.95-8.025-1.95c-2.775,0-5.325,0.675-7.725,1.725l-12.3-12.3c1.125-2.325,1.725-4.95,1.725-7.725
		c0-10.2-8.25-18.45-18.45-18.45c-10.2,0-18.45,8.25-18.45,18.45c0,2.85,0.675,5.475,1.875,7.875l-43.2,43.2
		c-2.4-1.125-5.1-1.875-7.875-1.875c-10.2,0-18.45,8.25-18.45,18.45c0,10.2,8.25,18.45,18.45,18.45s18.45-8.25,18.45-18.45
		c0-2.85-0.675-5.475-1.875-7.875l43.125-43.125c2.4,1.125,5.1,1.875,7.875,1.875c2.925,0,5.625-0.75,8.1-1.95L270.525,200
		c-1.2,2.475-1.95,5.175-1.95,8.1c0,10.2,8.25,18.45,18.45,18.45c10.2,0,18.45-8.25,18.45-18.45
		C305.55,205.25,304.875,202.625,303.75,200.225z M348.675,140.45c3.375,0,6.15,2.775,6.15,6.15s-2.775,6.15-6.15,6.15
		s-6.149-2.775-6.149-6.15S345.3,140.45,348.675,140.45z M182.625,245c-3.375,0-6.15-2.775-6.15-6.15s2.775-6.149,6.15-6.149
		s6.15,2.774,6.15,6.149S186,245,182.625,245z M250.275,177.35c-3.375,0-6.15-2.775-6.15-6.15s2.775-6.15,6.15-6.15
		s6.15,2.775,6.15,6.15S253.65,177.35,250.275,177.35z M287.1,214.175c-3.375,0-6.15-2.775-6.15-6.15s2.775-6.15,6.15-6.15
		s6.15,2.775,6.15,6.15S290.475,214.175,287.1,214.175z"/>
</g>
</svg>
