<?xml version="1.0" encoding="utf-8"?>
<!-- Generator: Adobe Illustrator 16.0.0, SVG Export Plug-In . SVG Version: 6.00 Build 0)  -->
<!DOCTYPE svg PUBLIC "-//W3C//DTD SVG 1.1//EN" "http://www.w3.org/Graphics/SVG/1.1/DTD/svg11.dtd">
<svg version="1.1" id="Camada_1" xmlns="http://www.w3.org/2000/svg" xmlns:xlink="http://www.w3.org/1999/xlink" x="0px" y="0px"
	 width="640px" height="480px" viewBox="0 0 640 480" enable-background="new 0 0 640 480" xml:space="preserve">
<g>
	<path fill="#0973C1" d="M254.425,288.4l14.475-8.851c6.3,3.45,12.975,6.226,19.875,8.25l3.975,16.575h46.275L343,287.8
		c6.9-2.024,13.575-4.725,19.875-8.25l14.475,8.851l32.7-32.7l-8.85-14.476c3.524-6.3,6.3-13.05,8.325-20.024l16.425-3.975V170.95
		l-16.275-3.975c-2.024-7.05-4.8-13.8-8.325-20.25l8.7-14.25l-32.7-32.7l-14.175,8.625c-6.45-3.6-13.274-6.375-20.325-8.4
		l-3.899-16.125h-46.275l-3.9,16.125c-7.05,2.025-13.875,4.875-20.325,8.4l-14.175-8.625l-32.7,32.7l8.7,14.25
		c-3.525,6.375-6.3,13.2-8.325,20.25l-16.275,3.975v46.275L222.1,221.2c2.025,6.975,4.8,13.65,8.325,20.024l-8.85,14.476
		L254.425,288.4z M218.05,207.7v-27.075l14.1-3.375l0.9-3.6c2.025-8.325,5.325-16.275,9.75-23.7l1.95-3.15l-7.5-12.3l19.125-19.125
		l12.225,7.5l3.15-1.95c7.35-4.5,15.375-7.8,23.775-9.9l3.6-0.9l3.375-13.95h27l3.375,13.95l3.6,0.9c8.4,2.1,16.351,5.4,23.775,9.9
		l3.15,1.95l12.225-7.5L394.75,134.5l-7.5,12.3l1.95,3.15c4.425,7.35,7.725,15.3,9.75,23.7l0.899,3.6l14.101,3.375V207.7
		l-14.175,3.45l-0.9,3.6c-2.1,8.325-5.325,16.2-9.75,23.475l-1.95,3.15l7.65,12.525L375.7,273.025l-12.525-7.65l-3.149,1.875
		c-7.275,4.35-15.15,7.65-23.4,9.675l-3.6,0.9l-3.45,14.325H302.5l-3.45-14.325l-3.6-0.9c-8.25-2.024-16.125-5.325-23.4-9.675
		l-3.15-1.875l-12.525,7.65L237.25,253.9l7.65-12.525l-1.95-3.15c-4.425-7.275-7.725-15.15-9.75-23.475l-0.9-3.6L218.05,207.7z"/>
	<path fill="#0973C1" d="M316,261.325c37.05,0,67.2-30.15,67.2-67.2s-30.15-67.2-67.2-67.2s-67.2,30.15-67.2,67.2
		S278.95,261.325,316,261.325z M316,139.15c30.3,0,54.975,24.675,54.975,54.975S346.3,249.1,316,249.1s-54.975-24.675-54.975-54.975
		S285.7,139.15,316,139.15z"/>
	
		<rect x="370.357" y="127.365" transform="matrix(-0.7071 -0.7071 0.7071 -0.7071 548.2795 494.0684)" fill="#0973C1" width="12.224" height="12.225"/>
	
		<rect x="249.385" y="248.342" transform="matrix(-0.7071 -0.7071 0.7071 -0.7071 256.2452 615.0452)" fill="#0973C1" width="12.224" height="12.225"/>
	<rect x="395.425" y="187.825" fill="#0973C1" width="12.226" height="12.225"/>
	<rect x="224.35" y="187.825" fill="#0973C1" width="12.225" height="12.225"/>
	
		<rect x="370.392" y="248.317" transform="matrix(0.7071 0.7071 -0.7071 0.7071 290.1589 -191.703)" fill="#0973C1" width="12.225" height="12.225"/>
	
		<rect x="249.381" y="127.367" transform="matrix(-0.7071 -0.7071 0.7071 -0.7071 341.7635 408.5262)" fill="#0973C1" width="12.225" height="12.225"/>
	<rect x="309.925" y="273.4" fill="#0973C1" width="12.226" height="12.225"/>
	<rect x="309.925" y="102.325" fill="#0973C1" width="12.226" height="12.225"/>
	<path fill="#0973C1" d="M316,47.5c-80.85,0-146.625,65.775-146.625,146.625c0,99.3,136.725,225.3,142.5,230.625L316,428.5
		l4.125-3.75c5.85-5.325,142.5-131.25,142.5-230.625C462.625,113.275,396.85,47.5,316,47.5z M316,59.725
		c74.1,0,134.4,60.3,134.4,134.4c0,54.3-45.825,119.4-84.825,165H266.35c-38.925-45.525-84.75-110.625-84.75-165
		C181.6,120.025,241.9,59.725,316,59.725z M316,411.85c-6.9-6.6-21.675-21.149-39-40.5h77.925
		C337.675,390.7,322.9,405.25,316,411.85z"/>
</g>
</svg>
