<?xml version="1.0" encoding="utf-8"?>
<!-- Generator: Adobe Illustrator 16.0.0, SVG Export Plug-In . SVG Version: 6.00 Build 0)  -->
<!DOCTYPE svg PUBLIC "-//W3C//DTD SVG 1.1//EN" "http://www.w3.org/Graphics/SVG/1.1/DTD/svg11.dtd">
<svg version="1.1" id="Camada_1" xmlns="http://www.w3.org/2000/svg" xmlns:xlink="http://www.w3.org/1999/xlink" x="0px" y="0px"
	 width="678.961px" height="210.96px" viewBox="0 0 678.961 210.96" enable-background="new 0 0 678.961 210.96"
	 xml:space="preserve">
<path fill-rule="evenodd" clip-rule="evenodd" fill="#3C91F3" d="M341.624,138.174c2.572,10.354,6.508,19.789,12.831,28.118
	c0.482,0.637,0.275,0.89-0.143,1.337c-6.275,6.713-13.661,11.867-21.984,15.714c-6.75,3.12-13.845,5.062-21.23,5.744
	c-18.863,1.742-35.984-2.905-50.85-14.771c-12.854-10.26-21.039-23.608-24.795-39.627c-1.428-6.089-1.9-12.285-1.628-18.536
	c0.692-15.866,6.228-29.877,16.446-41.966c9.865-11.67,22.369-19.201,37.213-22.831c5.965-1.459,12.036-2.001,18.159-1.832
	c15.823,0.438,29.87,5.757,42.166,15.669c11.701,9.432,19.614,21.398,23.554,35.927c2.01,7.414,2.578,14.968,2.226,22.643
	c-0.133,2.891,0.75,5.751,1.685,8.509c5.295,15.619,16.07,25.362,32.144,28.619c22.661,4.592,45.19-9.587,49.769-33.146
	c2.726-14.028-0.754-26.512-10.454-37.083c-6.598-7.19-14.84-11.497-24.492-12.888c-13.956-2.011-26.136,1.86-36.406,11.536
	c-2.803,2.641-5.091,5.726-6.989,9.087c-0.192,0.34-0.4,0.671-0.709,1.187c-0.956-3.783-2.123-7.302-3.602-10.712
	c-2.456-5.666-5.539-10.968-9.301-15.865c-0.635-0.826-0.725-1.326,0.089-2.156c10.178-10.39,22.362-17.067,36.608-20.001
	c5.225-1.076,10.509-1.476,15.825-1.326c15.82,0.447,29.863,5.773,42.152,15.687c11.696,9.436,19.601,21.412,23.545,35.934
	c2.067,7.611,2.697,15.367,2.117,23.24c-1.239,16.818-7.769,31.287-19.383,43.432c-10.549,11.03-23.323,18.127-38.447,20.584
	c-20.439,3.321-39.064-1.169-55.35-14.049c-12.933-10.229-21.118-23.635-24.862-39.705c-1.235-5.303-1.689-10.701-1.69-16.144
	c-0.001-10.45-3.719-19.485-10.599-27.242c-6.517-7.346-14.727-11.898-24.367-13.401c-14.779-2.305-27.703,1.769-38.182,12.589
	c-6.248,6.452-9.914,14.264-11.119,23.229c-2.717,20.207,9.064,39.92,28.879,45.928c17.155,5.201,32.206,1.111,44.719-11.823
	c2.286-2.363,4.053-5.139,5.615-8.033C341.025,139.301,341.263,138.85,341.624,138.174z"/>
<path fill-rule="evenodd" clip-rule="evenodd" fill="#414141" d="M65.888,156.646c4.896,2.751,10.076,4.533,15.665,5.123
	c7.866,0.83,15.406-0.281,22.577-3.676c4.67-2.21,8.655-5.383,12.426-8.862c2.437-2.249,4.942-4.424,7.389-6.662
	c0.483-0.442,0.736-0.506,1.216,0.033c5.785,6.51,11.597,12.996,17.407,19.484c0.304,0.339,0.645,0.592,0.11,1.05
	c-5.249,4.493-10.094,9.457-15.725,13.502c-9.045,6.497-19.053,10.709-30.09,12.261c-21.137,2.972-40.049-2.248-56.319-16.108
	c-12.175-10.372-19.817-23.535-22.823-39.328c-1.224-6.429-1.727-12.899-1.133-19.403c1.402-15.348,6.774-29.072,17.145-40.65
	c10.766-12.02,24.063-19.726,39.969-22.445c21.193-3.623,40.292,1.396,57.105,14.879c4.957,3.975,8.925,8.915,13.182,13.571
	c0.97,1.061,1.87,2.191,2.888,3.204c0.597,0.594,0.446,0.908-0.096,1.392c-4.98,4.441-9.939,8.906-14.911,13.357
	c-8.81,7.888-17.626,15.771-26.438,23.658c-12.741,11.404-25.482,22.809-38.216,34.222C66.75,155.663,66.175,155.992,65.888,156.646
	z M106.575,83.003c-8.641-5.135-19.243-6.793-29.064-4.872c-7.89,1.544-14.558,5.355-20.433,10.752
	c-12.984,11.928-16.516,30.62-10.318,45.926c0.381,0.941,0.615,0.956,1.315,0.326c7.002-6.306,14.028-12.586,21.042-18.879
	c9.661-8.666,19.341-17.309,29.118-25.843C101,88.001,103.722,85.541,106.575,83.003z"/>
<path fill-rule="evenodd" clip-rule="evenodd" fill="#3C91F3" d="M585.161,188.88c-12.398,0-24.797-0.011-37.194,0.021
	c-0.958,0.002-1.285-0.179-1.279-1.22c0.046-8.479,0.046-16.958,0.001-25.437c-0.006-1.029,0.302-1.229,1.271-1.227
	c24.437,0.027,48.873,0.021,73.31,0.021c7.2,0,12.901-4.714,13.938-11.79c1.283-8.752-4.14-14.683-10.572-16.149
	c-1.087-0.248-2.191-0.382-3.319-0.381c-13.317,0.011-26.64,0.2-39.952-0.058c-12.059-0.232-22.191-5.051-30.137-14.197
	c-4.962-5.713-8.265-12.292-9.625-19.763c-2.163-11.88,0.113-22.848,7.172-32.687c6.202-8.645,14.69-13.914,25.019-16.246
	c2.764-0.624,5.589-0.855,8.435-0.853c21.957,0.016,43.914,0.018,65.871-0.017c1.105-0.001,1.375,0.293,1.369,1.381
	c-0.047,8.318-0.046,16.638-0.001,24.956c0.006,1.081-0.252,1.387-1.365,1.385c-21.837-0.035-43.673-0.054-65.51-0.008
	c-5.962,0.013-10.411,2.833-12.8,8.25c-2.404,5.453-1.587,10.704,2.309,15.313c2.764,3.27,6.332,4.804,10.641,4.79
	c12.599-0.041,25.196-0.007,37.795-0.017c8.948-0.007,17.155,2.426,24.529,7.509c9.734,6.71,15.738,15.931,17.506,27.594
	c2.142,14.13-1.879,26.498-11.992,36.65c-6.616,6.641-14.689,10.583-24.056,11.75c-2.104,0.263-4.212,0.416-6.326,0.42
	C608.518,188.89,596.84,188.88,585.161,188.88z"/>
<path fill-rule="evenodd" clip-rule="evenodd" fill="#3C91F3" d="M153.6,72.129c0-16.317,0.01-32.635-0.022-48.953
	c-0.002-1.052,0.207-1.409,1.349-1.401c8.398,0.054,16.797,0.045,25.196,0.008c0.984-0.004,1.275,0.251,1.27,1.257
	c-0.041,8.159,0.002,16.317-0.05,24.476c-0.007,1.176,0.339,1.438,1.473,1.434c12.798-0.042,25.596-0.013,38.394-0.05
	c1.036-0.003,1.341,0.222,1.334,1.307c-0.051,8.358-0.046,16.717-0.004,25.076c0.006,1.028-0.214,1.342-1.303,1.338
	c-12.838-0.042-25.676-0.012-38.514-0.055c-1.136-0.003-1.377,0.336-1.375,1.408c0.034,13.478,0.001,26.956,0.029,40.434
	c0.025,12.553,4.555,23.212,13.792,31.73c6.199,5.718,13.578,9.133,21.93,10.428c5.768,0.895,11.57,0.32,17.356,0.46
	c2.939,0.071,2.94,0.013,2.94,3.009c0,7.839-0.025,15.678,0.029,23.517c0.008,1.141-0.346,1.366-1.4,1.35
	c-4.838-0.075-9.68,0.046-14.514-0.115c-15.36-0.512-29.124-5.554-41.156-15.089c-13.22-10.477-21.582-24.071-25.253-40.523
	c-1.019-4.563-1.474-9.22-1.485-13.893C153.576,103.564,153.6,87.847,153.6,72.129z"/>
<path fill-rule="evenodd" clip-rule="evenodd" fill="#3C91F3" d="M527.041,105.49c0,27.313-0.01,54.626,0.031,81.94
	c0.002,1.243-0.334,1.486-1.511,1.479c-8.317-0.054-16.636-0.053-24.954,0c-1.138,0.008-1.358-0.341-1.358-1.401
	c0.025-54.747,0.027-109.494-0.009-164.241c-0.001-1.26,0.358-1.496,1.532-1.489c8.238,0.051,16.477,0.052,24.714,0
	c1.199-0.007,1.589,0.231,1.587,1.531C527.03,50.703,527.041,78.096,527.041,105.49z"/>
</svg>
