<?xml version="1.0" encoding="utf-8"?>
<!-- Generator: Adobe Illustrator 16.0.0, SVG Export Plug-In . SVG Version: 6.00 Build 0)  -->
<!DOCTYPE svg PUBLIC "-//W3C//DTD SVG 1.1//EN" "http://www.w3.org/Graphics/SVG/1.1/DTD/svg11.dtd">
<svg version="1.1" id="Modo_de_isolamento" xmlns="http://www.w3.org/2000/svg" xmlns:xlink="http://www.w3.org/1999/xlink" x="0px"
	 y="0px" width="128.47px" height="71.34px" viewBox="0 0 128.47 71.34" enable-background="new 0 0 128.47 71.34"
	 xml:space="preserve">
<g>
	<path fill="#FFFFFF" stroke="#4A63AE" stroke-miterlimit="10" d="M70.735,42.161c0.006-0.034,0.011-0.068,0.018-0.103
		C70.746,42.093,70.741,42.127,70.735,42.161z"/>
	<path fill="#FFFFFF" stroke="#4A63AE" stroke-miterlimit="10" d="M71.019,40.33c0.019-0.146,0.038-0.29,0.055-0.435
		C71.057,40.04,71.037,40.185,71.019,40.33z"/>
	<path fill="#FFFFFF" stroke="#4A63AE" stroke-miterlimit="10" d="M69.19,47.81c0.013-0.035,0.024-0.07,0.037-0.104
		C69.214,47.739,69.203,47.774,69.19,47.81z"/>
	<path fill="#FFFFFF" d="M125.69,21.688c-1.855-4.29-4.424-8.049-7.707-11.281c-3.283-3.23-7.07-5.771-11.359-7.627
		C102.335,0.929,97.698,0,92.722,0c-4.873,0-9.48,0.929-13.822,2.78c-4.346,1.855-8.131,4.396-11.361,7.627
		c-0.322,0.323-0.623,0.666-0.932,1.001c2.607,3.366,5.555,8.207,6.988,14.162c1.012-1.907,2.27-3.629,3.795-5.153
		c1.959-1.959,4.262-3.495,6.91-4.607c2.646-1.112,5.455-1.669,8.422-1.669c2.965,0,5.771,0.557,8.42,1.669
		c2.646,1.112,4.951,2.648,6.912,4.607c1.959,1.961,3.496,4.237,4.607,6.832c1.113,2.597,1.668,5.377,1.668,8.342
		c0,2.966-0.555,5.774-1.668,8.421c-1.111,2.648-2.648,4.952-4.607,6.911c-1.961,1.961-4.266,3.495-6.912,4.607
		c-2.648,1.112-5.455,1.669-8.42,1.669c-2.967,0-5.775-0.557-8.422-1.669c-2.648-1.112-4.951-2.646-6.91-4.607
		c-1.961-1.959-3.496-4.263-4.607-6.911c-0.117-0.277-0.213-0.56-0.318-0.841c-0.613-1.658-1.023-3.377-1.213-5.157
		c0.051-0.801,0.088-1.606,0.088-2.423c0-0.821-0.035-1.63-0.086-2.433c-0.256-4.062-1.148-7.889-2.695-11.47
		c-1.164-2.694-2.611-5.178-4.34-7.454c-1.023-1.349-2.145-2.625-3.365-3.827c-3.285-3.23-7.07-5.771-11.361-7.627
		C45.202,0.929,40.567,0,35.589,0c-4.873,0-9.479,0.929-13.821,2.78c-4.345,1.855-8.131,4.396-11.36,7.627
		C7.175,13.64,4.633,17.398,2.78,21.688C0.926,25.978,0,30.613,0,35.591c0,4.873,0.926,9.48,2.78,13.822
		c1.853,4.345,4.395,8.158,7.627,11.44c3.229,3.284,7.016,5.854,11.36,7.705c4.342,1.854,8.948,2.781,13.821,2.781
		c4.979,0,9.613-0.927,13.902-2.781c4.291-1.852,8.076-4.421,11.361-7.705c0.316-0.317,0.609-0.654,0.914-0.982
		c-3.686-4.709-5.693-10.158-6.787-14.702c-1.053,2.162-2.393,4.09-4.057,5.754c-1.963,1.961-4.266,3.495-6.912,4.607
		c-2.648,1.112-5.457,1.669-8.422,1.669s-5.773-0.557-8.42-1.669c-2.648-1.112-4.952-2.646-6.911-4.607
		c-1.961-1.959-3.495-4.263-4.607-6.911c-1.112-2.646-1.669-5.455-1.669-8.421c0-2.965,0.557-5.745,1.669-8.342
		c1.112-2.595,2.646-4.871,4.607-6.832c1.959-1.959,4.263-3.495,6.911-4.607c2.646-1.112,5.455-1.669,8.42-1.669
		s5.773,0.557,8.422,1.669c2.646,1.112,4.949,2.648,6.912,4.607c1.959,1.961,3.494,4.237,4.607,6.832
		c0.992,2.319,1.518,4.794,1.623,7.407c-0.008,0.312-0.021,0.62-0.021,0.935c0,0.313,0.014,0.62,0.021,0.931
		c0.111,4.528,1.023,8.828,2.758,12.892c1.164,2.729,2.6,5.247,4.307,7.557c1.012,1.367,2.119,2.663,3.32,3.884
		c3.23,3.284,7.016,5.854,11.361,7.705c4.342,1.854,8.949,2.781,13.822,2.781c4.977,0,9.613-0.927,13.902-2.781
		c4.289-1.852,8.076-4.421,11.359-7.705c3.283-3.282,5.852-7.096,7.707-11.44c1.852-4.342,2.779-8.949,2.779-13.822
		C128.47,30.613,127.542,25.978,125.69,21.688z M71.073,39.896c-0.017,0.145-0.036,0.289-0.055,0.435
		C71.037,40.185,71.057,40.04,71.073,39.896z M70.753,42.059c-0.007,0.034-0.012,0.068-0.018,0.103
		C70.741,42.127,70.746,42.093,70.753,42.059z M69.228,47.705c-0.013,0.034-0.024,0.069-0.037,0.104
		C69.203,47.774,69.214,47.739,69.228,47.705z"/>
</g>
</svg>
